<?xml version="1.0" encoding="UTF-8" standalone="no"?>
<!-- Скачано с сайта svg4.ru / Downloaded from svg4.ru -->

<svg
   width="128"
   height="128"
   viewBox="0 0 24 24"
   id="Layer_1"
   data-name="Layer 1"
   version="1.1"
   sodipodi:docname="memorialnaya_tablichka.svg"
   inkscape:version="1.4.3 (0d15f75, 2025-12-25)"
   xmlns:inkscape="http://www.inkscape.org/namespaces/inkscape"
   xmlns:sodipodi="http://sodipodi.sourceforge.net/DTD/sodipodi-0.dtd"
   xmlns="http://www.w3.org/2000/svg"
   xmlns:svg="http://www.w3.org/2000/svg">
  <sodipodi:namedview
     id="namedview2"
     pagecolor="#ffffff"
     bordercolor="#000000"
     borderopacity="0.25"
     inkscape:showpageshadow="2"
     inkscape:pageopacity="0.0"
     inkscape:pagecheckerboard="0"
     inkscape:deskcolor="#d1d1d1"
     inkscape:zoom="2.2792969"
     inkscape:cx="110.34104"
     inkscape:cy="75.681233"
     inkscape:window-width="1920"
     inkscape:window-height="1009"
     inkscape:window-x="-8"
     inkscape:window-y="247"
     inkscape:window-maximized="1"
     inkscape:current-layer="Layer_1" />
  <defs
     id="defs1">
    <style
       id="style1">.cls-1{fill:none;stroke:#020202;stroke-miterlimit:10;stroke-width:1.91px;}</style>
  </defs>
  <path
     d="m 3.5062508,2.5625002 c -1.5312149,0 -2.83125005,1.300037 -2.83125005,2.83125 V 18.60625 c 0,1.452036 1.26044825,2.83125 2.83125005,2.83125 H 20.493749 c 1.41245,0 2.83125,-1.339625 2.83125,-2.83125 V 5.3937502 c 0,-1.4520369 -1.379213,-2.8312499 -2.83125,-2.8312499 z m 0,1.8875 c 0.5212163,0 0.9437494,0.422531 0.9437494,0.94375 0,0.521219 -0.4225331,0.94375 -0.9437494,0.94375 -0.5212218,0 -0.9437512,-0.422531 -0.9437512,-0.94375 0,-0.521219 0.4225294,-0.94375 0.9437512,-0.94375 z m 16.9874982,0 c 0.521218,0 0.94375,0.422531 0.94375,0.94375 0,0.521219 -0.422532,0.94375 -0.94375,0.94375 -0.521218,0 -0.94375,-0.422531 -0.94375,-0.94375 0,-0.521219 0.422532,-0.94375 0.94375,-0.94375 z m -12.2687492,1.8875 H 10.112499 V 8.2250003 H 8.2249998 Z m 3.7749992,0 h 3.775 v 1.8875001 h -3.775 z M 4.4500002,10.1125 H 19.549999 V 12 H 4.4500002 Z m 3.7749996,3.775 H 15.774999 V 15.775 H 8.2249998 Z m -4.718749,3.775 c 0.5212163,0 0.9437494,0.422532 0.9437494,0.94375 0,0.521218 -0.4225331,0.94375 -0.9437494,0.94375 -0.5212218,0 -0.9437512,-0.422532 -0.9437512,-0.94375 0,-0.521218 0.4225294,-0.94375 0.9437512,-0.94375 z m 16.9874982,0 c 0.521218,0 0.94375,0.422532 0.94375,0.94375 0,0.521218 -0.422532,0.94375 -0.94375,0.94375 -0.521218,0 -0.94375,-0.422532 -0.94375,-0.94375 0,-0.521218 0.422532,-0.94375 0.94375,-0.94375 z"
     id="memorial"
     style="fill:#000000;fill-opacity:1;stroke:none;stroke-width:1.88751" />
</svg>
