<?xml version="1.0" encoding="UTF-8" standalone="no"?>
<!-- Uploaded to: SVG Repo, www.svgrepo.com, Generator: SVG Repo Mixer Tools -->

<svg
   fill="#000000"
   width="800px"
   height="800px"
   viewBox="0 0 16 16"
   version="1.1"
   id="svg1"
   sodipodi:docname="noch.svg"
   inkscape:version="1.4.3 (0d15f75, 2025-12-25)"
   xmlns:inkscape="http://www.inkscape.org/namespaces/inkscape"
   xmlns:sodipodi="http://sodipodi.sourceforge.net/DTD/sodipodi-0.dtd"
   xmlns="http://www.w3.org/2000/svg"
   xmlns:svg="http://www.w3.org/2000/svg">
  <defs
     id="defs1" />
  <sodipodi:namedview
     id="namedview1"
     pagecolor="#ffffff"
     bordercolor="#000000"
     borderopacity="0.25"
     inkscape:showpageshadow="2"
     inkscape:pageopacity="0.0"
     inkscape:pagecheckerboard="0"
     inkscape:deskcolor="#d1d1d1"
     inkscape:zoom="1.45875"
     inkscape:cx="400"
     inkscape:cy="400"
     inkscape:window-width="2560"
     inkscape:window-height="1369"
     inkscape:window-x="1912"
     inkscape:window-y="247"
     inkscape:window-maximized="1"
     inkscape:current-layer="svg1" />
  <path
     d="M 10.428266,3.9376312 A 4.5456642,4.5456642 0 0 1 12.683588,7.789889 4.7908079,4.7908079 0 0 1 7.7246815,12.377578 5.1970459,5.1970459 0 0 1 5.0491134,11.677167 4.9028735,4.9028735 0 0 1 3.7183334,10.52149 6.6328875,6.6328875 0 0 0 6.0577045,10.003186 6.9480722,6.9480722 0 0 0 8.3690592,8.4342667 7.0041051,7.0041051 0 0 0 10.428266,3.9376312 M 9.9729992,2.7259211 A 0.46227093,0.46227093 0 0 0 9.5107283,3.2092043 6.0445427,6.0445427 0 0 1 7.7246815,7.789889 6.0795632,6.0795632 0 0 1 3.4591815,9.589944 H 2.8568285 A 0.46227093,0.46227093 0 0 0 2.4505904,10.290355 5.9184688,5.9184688 0 0 0 7.7246815,13.365157 5.7083456,5.7083456 0 0 0 13.601126,7.789889 5.4982225,5.4982225 0 0 0 10.148102,2.7679457 0.42725041,0.42725041 0 0 0 9.9729992,2.7259211 Z"
     id="path1"
     style="stroke-width:0.70041" />
</svg>
