<?xml version="1.0" encoding="UTF-8" standalone="no"?>
<!-- Скачано с сайта svg4.ru / Downloaded from svg4.ru -->

<svg
   width="128"
   height="128"
   viewBox="0 0 24 24"
   fill="none"
   version="1.1"
   id="svg2"
   sodipodi:docname="book-88_128x128.svg"
   inkscape:version="1.4.3 (0d15f75, 2025-12-25)"
   xmlns:inkscape="http://www.inkscape.org/namespaces/inkscape"
   xmlns:sodipodi="http://sodipodi.sourceforge.net/DTD/sodipodi-0.dtd"
   xmlns="http://www.w3.org/2000/svg"
   xmlns:svg="http://www.w3.org/2000/svg">
  <defs
     id="defs2" />
  <sodipodi:namedview
     id="namedview2"
     pagecolor="#ffffff"
     bordercolor="#000000"
     borderopacity="0.25"
     inkscape:showpageshadow="2"
     inkscape:pageopacity="0.0"
     inkscape:pagecheckerboard="0"
     inkscape:deskcolor="#d1d1d1"
     inkscape:zoom="9.1171875"
     inkscape:cx="64"
     inkscape:cy="64"
     inkscape:window-width="2560"
     inkscape:window-height="1369"
     inkscape:window-x="1912"
     inkscape:window-y="247"
     inkscape:window-maximized="1"
     inkscape:current-layer="svg2" />
  <path
     d="m 20,12 v 5 c 0,1.8856 0,4 0,4 0,0 -2.1144,0 -4,0 H 6.5 C 5.11929,21 4,19.8807 4,18.5 v 0 C 4,17.1193 5.11929,16 6.5,16 H 16 c 1.8856,0 4,0 4,0 0,0 0,-2.1144 0,-4 V 7 c 0,-1.88562 0,-4 0,-4 0,0 -2.1144,0 -4,0 H 6.5 C 5.1486341,3 4,4.4364454 4,5.7660668 V 18.5"
     stroke="#33363f"
     stroke-width="2"
     id="path1"
     sodipodi:nodetypes="cscsssssscsscsssc"
     style="display:inline;stroke:#000000;stroke-opacity:1" />
  <path
     d="m 9,8 h 6"
     stroke="#33363f"
     stroke-width="2"
     stroke-linecap="round"
     id="path2"
     style="display:inline;stroke-linecap:square;stroke:#000000;stroke-opacity:1" />
</svg>
