<!-- icon666.com - MILLIONS vector ICONS FREE --><svg version="1.1" id="Capa_1" xmlns="http://www.w3.org/2000/svg" xmlns:xlink="http://www.w3.org/1999/xlink" x="0px" y="0px" viewBox="0 0 512 512" style="enable-background:new 0 0 512 512;" xml:space="preserve"><g><g><path d="M0,80.817v110.646c0,40.892,12.996,79.776,37.582,112.451c24.586,32.675,58.35,55.932,97.642,67.258l2.77,0.799 l2.77-0.799c29.79-8.587,56.654-24.309,78.513-45.562c-8.748-23.753-13.265-48.995-13.265-74.936v-58.557H160.83v-30h45.182 v-22.087v-30h30h39.976V80.817H0z M66.883,162.118h48.275v30H66.883V162.118z M182.074,275.393v4.5H93.913v-4.5 c0-24.306,19.774-44.08,44.081-44.08S182.074,251.088,182.074,275.393z"></path></g></g><g><g><path d="M236.012,140.029v110.645c0,40.892,12.996,79.776,37.582,112.451s58.351,55.933,97.643,67.259l2.77,0.799l2.77-0.799 c39.292-11.326,73.057-34.584,97.643-67.259S512,291.565,512,250.674V140.029H236.012z M302.896,222.166h48.274v30h-48.274 V222.166z M418.086,305.87c0,24.307-19.774,44.081-44.08,44.081c-24.307,0-44.081-19.774-44.081-44.081v-4.5h88.161V305.87z M445.116,252.166h-48.274v-30h48.274V252.166z"></path></g></g></svg>